<svg width="190" height="40" viewBox="0 0 190 40" fill="none" xmlns="http://www.w3.org/2000/svg">
<path d="M27.8671 32.3489C26.9242 32.9088 26.2457 33.916 25.7633 35.0141C25.0924 36.5309 24.7918 38.2182 24.6701 39.1204C23.1618 39.6572 21.5784 39.9541 19.9779 40V35.6138C20.6431 35.5026 21.2474 35.1594 21.6832 34.6451C22.119 34.1309 22.3582 33.479 22.3582 32.8052C22.3582 32.1314 22.119 31.4795 21.6832 30.9652C21.2474 30.451 20.6431 30.1078 19.9779 29.9966V16.9175C23.1531 28.3822 27.8671 32.3489 27.8671 32.3489Z" fill="#0AA6D7"/>
<path d="M16.6561 32.8044C16.6554 33.4786 16.8943 34.1311 17.3304 34.6457C17.7665 35.1602 18.3714 35.5033 19.0372 35.6138V40C17.4366 39.9543 15.8532 39.6575 14.3449 39.1204C14.2232 38.2197 13.9227 36.5294 13.2517 35.0118C12.7663 33.916 12.0893 32.9103 11.1479 32.3489C11.1479 32.3489 15.8634 28.3822 19.0372 16.9175V29.9966C18.3716 30.1069 17.7668 30.4497 17.3307 30.964C16.8946 31.4782 16.6556 32.1305 16.6561 32.8044Z" fill="#0AA6D7"/>
<path d="M20.6984 15.7836C20.8541 15.1248 20.4456 14.4647 19.7861 14.3092C19.1266 14.1537 18.4658 14.5617 18.3101 15.2205C18.1544 15.8793 18.5629 16.5395 19.2224 16.695C19.8819 16.8504 20.5428 16.4424 20.6984 15.7836Z" fill="#0AA6D7"/>
<path d="M19.5068 9.12898C10.9833 9.12898 4.05055 16.0558 4.05055 24.5686C4.05055 31.0879 8.11615 36.6773 13.8505 38.935C13.6702 37.9592 13.3584 36.6961 12.8422 35.5267C12.6539 35.0961 12.4316 34.6813 12.1773 34.286C10.6689 33.1533 9.44492 31.6857 8.60189 29.9993C7.75886 28.3128 7.31992 26.4536 7.31971 24.5686C7.31971 17.8564 12.7859 12.3939 19.5068 12.3939C26.2277 12.3939 31.6923 17.8564 31.6923 24.5686C31.6923 26.4548 31.253 28.3151 30.4091 30.0024C29.5653 31.6897 28.34 33.1578 26.8303 34.2905C26.5791 34.685 26.3588 35.0983 26.1713 35.5267C25.6551 36.6961 25.3448 37.96 25.163 38.9335C30.8959 36.6758 34.963 31.0879 34.963 24.5671C34.9622 16.0558 28.0294 9.12898 19.5068 9.12898Z" fill="#0AA6D7"/>
<path d="M39.0128 3.3197L39.0166 4.71873L28.4367 6.40372L28.4307 3.8646C28.4307 3.8646 24.743 2.5789 20.5955 3.52235C20.5955 3.52235 25.9903 3.45555 27.6538 4.43727L27.6741 12.2625L11.5905 12.3046L11.5762 6.60037L0 4.76676V3.47206L13.4283 1.26018L13.4433 7.17979L12.858 8.08046C12.808 8.15711 12.7797 8.24583 12.7761 8.33724C12.7724 8.42865 12.7936 8.51934 12.8373 8.59971C12.8811 8.68009 12.9457 8.74716 13.0245 8.79382C13.1033 8.84048 13.1932 8.865 13.2848 8.86479H14.5861C14.6777 8.86462 14.7675 8.83971 14.846 8.7927C14.9245 8.74569 14.9888 8.67833 15.0321 8.59777C15.0754 8.51721 15.096 8.42644 15.0919 8.3351C15.0877 8.24376 15.0589 8.15525 15.0084 8.07895L14.3788 7.1145L14.3637 1.1536L19.6571 0L39.0128 3.3197Z" fill="#0AA6D7"/>
<path d="M46.738 33.5V5.74H50.498V33.5H46.738ZM49.298 33.5V30.06H65.218V33.5H49.298ZM49.298 20.94V17.66H63.898V20.94H49.298ZM49.298 9.18V5.74H65.018V9.18H49.298ZM77.3802 33.9C75.6202 33.9 74.0469 33.4733 72.6602 32.62C71.2735 31.74 70.1669 30.5533 69.3402 29.06C68.5402 27.5667 68.1402 25.8867 68.1402 24.02C68.1402 22.1533 68.5402 20.4733 69.3402 18.98C70.1669 17.4867 71.2735 16.3 72.6602 15.42C74.0469 14.54 75.6202 14.1 77.3802 14.1C78.7935 14.1 80.0735 14.4067 81.2202 15.02C82.3669 15.6067 83.2869 16.4333 83.9802 17.5C84.7002 18.54 85.1002 19.7533 85.1802 21.14V26.86C85.1002 28.22 84.7135 29.4333 84.0202 30.5C83.3269 31.5667 82.4069 32.4067 81.2602 33.02C80.1135 33.6067 78.8202 33.9 77.3802 33.9ZM77.9802 30.5C79.1802 30.5 80.2202 30.22 81.1002 29.66C82.0069 29.1 82.7135 28.34 83.2202 27.38C83.7269 26.3933 83.9802 25.2733 83.9802 24.02C83.9802 22.7133 83.7135 21.58 83.1802 20.62C82.6735 19.66 81.9669 18.9 81.0602 18.34C80.1802 17.78 79.1402 17.5 77.9402 17.5C76.7402 17.5 75.6869 17.78 74.7802 18.34C73.8735 18.9 73.1535 19.6733 72.6202 20.66C72.1135 21.62 71.8602 22.7267 71.8602 23.98C71.8602 25.26 72.1135 26.3933 72.6202 27.38C73.1535 28.34 73.8735 29.1 74.7802 29.66C75.7135 30.22 76.7802 30.5 77.9802 30.5ZM87.3802 33.5H83.7402V28.38L84.4202 23.74L83.7402 19.14V4.94H87.3802V33.5ZM100.261 33.9C98.7148 33.9 97.3148 33.5533 96.0614 32.86C94.8348 32.14 93.8748 31.1533 93.1814 29.9C92.4881 28.6467 92.1414 27.1933 92.1414 25.54V14.5H95.7414V25.38C95.7414 26.42 95.9148 27.3267 96.2614 28.1C96.6348 28.8467 97.1681 29.42 97.8614 29.82C98.5548 30.22 99.3681 30.42 100.301 30.42C101.715 30.42 102.821 29.98 103.621 29.1C104.421 28.1933 104.821 26.9533 104.821 25.38V14.5H108.421V25.54C108.421 27.1933 108.075 28.6467 107.381 29.9C106.688 31.1533 105.728 32.14 104.501 32.86C103.301 33.5533 101.888 33.9 100.261 33.9ZM121.926 33.9C120.06 33.9 118.366 33.46 116.846 32.58C115.353 31.7 114.166 30.5133 113.286 29.02C112.433 27.5 112.006 25.82 112.006 23.98C112.006 22.1133 112.433 20.4333 113.286 18.94C114.166 17.4467 115.353 16.2733 116.846 15.42C118.366 14.54 120.06 14.1 121.926 14.1C123.393 14.1 124.753 14.38 126.006 14.94C127.26 15.4733 128.34 16.26 129.246 17.3L126.846 19.7C126.26 19.0067 125.54 18.4867 124.686 18.14C123.86 17.7667 122.94 17.58 121.926 17.58C120.726 17.58 119.66 17.86 118.726 18.42C117.793 18.9533 117.06 19.7 116.526 20.66C115.993 21.62 115.726 22.7267 115.726 23.98C115.726 25.2333 115.993 26.34 116.526 27.3C117.06 28.26 117.793 29.02 118.726 29.58C119.66 30.14 120.726 30.42 121.926 30.42C122.94 30.42 123.86 30.2467 124.686 29.9C125.54 29.5267 126.273 28.9933 126.886 28.3L129.246 30.7C128.366 31.7133 127.286 32.5 126.006 33.06C124.753 33.62 123.393 33.9 121.926 33.9ZM140.506 33.9C138.773 33.9 137.199 33.4733 135.786 32.62C134.373 31.74 133.253 30.5533 132.426 29.06C131.626 27.5667 131.226 25.8867 131.226 24.02C131.226 22.1533 131.626 20.4733 132.426 18.98C133.253 17.4867 134.359 16.3 135.746 15.42C137.159 14.54 138.746 14.1 140.506 14.1C141.946 14.1 143.226 14.4067 144.346 15.02C145.493 15.6067 146.413 16.4333 147.106 17.5C147.799 18.54 148.186 19.7533 148.266 21.14V26.86C148.186 28.22 147.799 29.4333 147.106 30.5C146.439 31.5667 145.533 32.4067 144.386 33.02C143.266 33.6067 141.973 33.9 140.506 33.9ZM141.106 30.5C142.893 30.5 144.333 29.9 145.426 28.7C146.519 27.4733 147.066 25.9133 147.066 24.02C147.066 22.7133 146.813 21.58 146.306 20.62C145.826 19.6333 145.133 18.8733 144.226 18.34C143.319 17.78 142.266 17.5 141.066 17.5C139.866 17.5 138.799 17.78 137.866 18.34C136.959 18.9 136.239 19.6733 135.706 20.66C135.199 21.62 134.946 22.7267 134.946 23.98C134.946 25.26 135.199 26.3933 135.706 27.38C136.239 28.34 136.973 29.1 137.906 29.66C138.839 30.22 139.906 30.5 141.106 30.5ZM146.826 33.5V28.38L147.506 23.74L146.826 19.14V14.5H150.466V33.5H146.826ZM158.549 33.5V6.54H162.149V33.5H158.549ZM153.869 17.78V14.5H166.829V17.78H153.869ZM178.57 33.9C176.677 33.9 174.97 33.4733 173.45 32.62C171.93 31.74 170.73 30.5533 169.85 29.06C168.97 27.5667 168.53 25.8733 168.53 23.98C168.53 22.1133 168.957 20.4333 169.81 18.94C170.69 17.4467 171.863 16.2733 173.33 15.42C174.823 14.54 176.49 14.1 178.33 14.1C180.09 14.1 181.637 14.5 182.97 15.3C184.33 16.1 185.383 17.2067 186.13 18.62C186.903 20.0333 187.29 21.6333 187.29 23.42C187.29 23.6867 187.277 23.98 187.25 24.3C187.223 24.5933 187.17 24.94 187.09 25.34H171.05V22.34H185.17L183.85 23.5C183.85 22.22 183.623 21.14 183.17 20.26C182.717 19.3533 182.077 18.66 181.25 18.18C180.423 17.6733 179.423 17.42 178.25 17.42C177.023 17.42 175.943 17.6867 175.01 18.22C174.077 18.7533 173.357 19.5 172.85 20.46C172.343 21.42 172.09 22.5533 172.09 23.86C172.09 25.1933 172.357 26.3667 172.89 27.38C173.423 28.3667 174.183 29.14 175.17 29.7C176.157 30.2333 177.29 30.5 178.57 30.5C179.637 30.5 180.61 30.3133 181.49 29.94C182.397 29.5667 183.17 29.0067 183.81 28.26L186.13 30.62C185.223 31.6867 184.103 32.5 182.77 33.06C181.463 33.62 180.063 33.9 178.57 33.9Z" fill="#2A322D"/>
</svg>
